<?xml version="1.0" standalone="no"?>
<!DOCTYPE svg PUBLIC "-//W3C//DTD SVG 20010904//EN"
 "http://www.w3.org/TR/2001/REC-SVG-20010904/DTD/svg10.dtd">
<svg version="1.0" xmlns="http://www.w3.org/2000/svg"
 width="1577.000000pt" height="1577.000000pt" viewBox="0 0 1577.000000 1577.000000"
 preserveAspectRatio="xMidYMid meet">
<metadata>
Created by potrace 1.11, written by Peter Selinger 2001-2013
</metadata>
<g transform="translate(0.000000,1577.000000) scale(0.100000,-0.100000)"
fill="#000000" stroke="none">
<path d="M3558 13029 c-239 -36 -436 -215 -498 -453 -18 -69 -19 -216 -19
-4681 0 -2987 4 -4629 10 -4665 34 -192 172 -365 355 -446 113 -50 131 -51
870 -49 612 2 695 4 740 18 74 24 135 53 193 92 51 34 151 149 183 211 76 145
71 -8 72 2064 l1 1855 2423 0 c1631 0 2422 -3 2423 -10 0 -5 1 -838 1 -1849 1
-1463 3 -1849 13 -1888 8 -27 14 -52 14 -56 6 -43 55 -141 104 -207 77 -102
233 -198 362 -222 22 -4 348 -8 725 -8 638 0 690 1 755 19 169 45 309 160 389
322 68 137 63 -260 62 4834 l-2 4625 -26 75 c-38 109 -74 166 -153 246 -75 76
-161 127 -271 160 -54 17 -116 18 -739 19 -518 1 -695 -2 -741 -11 -226 -47
-395 -204 -470 -434 -17 -52 -18 -159 -20 -1910 -1 -1020 -3 -1862 -3 -1871
-1 -14 -237 -15 -2423 -15 l-2423 1 0 1855 c-1 2007 2 1899 -55 2026 -56 126
-149 225 -271 289 -133 70 -110 68 -859 69 -371 1 -696 -1 -722 -5z"/>
<path d="M1806 11823 c-1 -1 -22 -3 -46 -4 -55 -3 -162 -38 -233 -76 -117 -63
-234 -212 -281 -358 -19 -58 -20 -107 -22 -1310 -1 -687 -3 -1257 -3 -1265 -1
-14 -43 -16 -339 -16 -378 -1 -401 -4 -532 -66 -160 -76 -283 -232 -325 -411
-13 -55 -15 -136 -15 -441 1 -342 3 -381 21 -446 60 -218 222 -378 439 -436
55 -14 117 -17 408 -18 298 -1 342 -3 343 -16 0 -8 2 -575 3 -1260 2 -685 5
-1254 8 -1265 4 -11 9 -33 13 -50 4 -16 24 -64 44 -105 76 -158 254 -292 431
-326 35 -7 687 -13 705 -7 12 4 14 7858 2 7869 -6 7 -615 13 -621 7z"/>
<path d="M13369 11820 l-25 -5 1 -3930 c1 -2161 3 -3932 4 -3935 0 -3 155 -5
344 -4 290 1 352 4 407 18 167 45 316 167 390 320 22 46 46 114 53 152 10 53
13 348 12 1302 0 677 2 1233 5 1233 3 1 158 3 345 4 286 2 350 5 405 19 221
59 391 236 443 463 19 82 20 770 1 851 -59 252 -252 438 -499 478 -22 4 -188
7 -370 8 l-330 1 0 1250 c-1 988 -4 1262 -14 1305 -49 207 -210 381 -415 446
-80 26 -86 26 -407 27 -179 1 -336 0 -350 -3z"/>
</g>
</svg>
